<?xml version="1.0" encoding="utf-8"?>
<!-- Generator: Adobe Illustrator 16.0.0, SVG Export Plug-In . SVG Version: 6.00 Build 0)  -->
<!DOCTYPE svg PUBLIC "-//W3C//DTD SVG 1.1//EN" "http://www.w3.org/Graphics/SVG/1.1/DTD/svg11.dtd">
<svg version="1.1" id="Layer_1" xmlns="http://www.w3.org/2000/svg" xmlns:xlink="http://www.w3.org/1999/xlink" x="0px" y="0px"
	 width="125px" height="40px" viewBox="0 0 177 57.088" enable-background="new 0 0 177 57.088" xml:space="preserve">
<g>
	<path fill="#B1000E" d="M7.985,32.721H5.328c1.726,9.71,9.36,17.403,19.04,19.218v-2.663C16.13,47.532,9.645,40.989,7.985,32.721z"
		/>
	<path fill="#B1000E" d="M24.367,7.812V5.149c-9.563,1.793-17.128,9.324-18.973,18.87h2.665C9.829,15.916,16.247,9.532,24.367,7.812
		z"/>
	<path fill="#B1000E" d="M33.069,49.295v2.662c5.993-1.1,11.208-4.451,14.733-9.141h-3.386
		C41.462,46.054,37.519,48.373,33.069,49.295z"/>
	<path fill="#B1000E" d="M44.573,14.446h3.358c-3.526-4.781-8.796-8.202-14.862-9.314v2.66
		C37.598,8.729,41.602,11.118,44.573,14.446z"/>
	<polygon points="38.183,17.894 19.205,17.894 19.205,22.855 25.81,22.855 25.81,40.034 31.578,40.034 31.578,22.855 38.183,22.855
			"/>
	<polygon points="53.383,25.956 45.786,25.956 45.786,17.894 40.019,17.894 40.019,40.034 45.786,40.034 45.786,30.917
		53.383,30.917 53.383,40.034 59.151,40.034 59.151,17.894 53.383,17.894 	"/>
	<path d="M77.85,29.739v-0.062c2.326-0.899,3.473-3.163,3.473-5.551c0-4.465-3.845-6.232-7.752-6.232H62.283v22.14h5.768v-8.062
		h4.372c2.698,0,3.07,2.294,3.225,4.527c0.062,0.621,0.155,2.791,0.651,3.535h5.706c-0.775-0.806-0.868-4.062-0.93-4.992
		C80.889,32.933,80.206,30.297,77.85,29.739z M72.888,27.507h-4.837v-4.993h4.589c1.612,0,2.915,0.744,2.915,2.388
		C75.555,26.576,74.625,27.507,72.888,27.507z"/>
	<rect x="84.532" y="17.894" width="5.768" height="22.14"/>
	<polygon points="99.775,17.894 94.008,17.894 94.008,40.034 110.102,40.034 110.102,35.073 99.775,35.073 	"/>
	<polygon points="117.873,17.894 112.104,17.894 112.104,40.034 128.198,40.034 128.198,35.073 117.873,35.073 	"/>
	<rect x="130.198" y="17.894" width="5.768" height="22.14"/>
	<path d="M150.757,26.701c-3.225-0.899-6.418-1.209-6.418-2.915c0-1.458,1.55-1.892,2.791-1.892c1.768,0,3.659,0.651,3.566,2.667
		h5.768c-0.031-4.993-4.465-7.132-8.869-7.132c-4.155,0-9.024,1.892-9.024,6.729c0,4.062,3.318,5.488,6.481,6.388
		c3.194,0.899,6.357,1.271,6.357,3.225c0,1.644-1.798,2.264-3.535,2.264c-2.449,0-4.062-0.837-4.186-3.442h-5.768
		c0.031,5.674,4.527,7.907,9.613,7.907c4.868,0,9.644-1.799,9.644-7.411C157.176,29.088,153.951,27.6,150.757,26.701z"/>
	<polygon points="158.022,17.894 158.022,22.855 164.627,22.855 164.627,40.034 170.395,40.034 170.395,22.855 177,22.855
		177,17.894 	"/>
	<rect x="27.326" width="2.611" height="12.184"/>
	<rect y="27.152" width="12.184" height="2.611"/>
	<rect x="27.326" y="44.905" width="2.611" height="12.184"/>
</g>
</svg>
